<svg width="14" height="21" viewBox="0 0 14 21" fill="none" xmlns="http://www.w3.org/2000/svg">
<path d="M14 8C14.0016 6.65788 13.6173 5.34361 12.8929 4.21375C12.1685 3.0839 11.1346 2.1861 9.91437 1.62733C8.69411 1.06855 7.33893 0.872357 6.0103 1.06211C4.68166 1.25187 3.43559 1.81958 2.42053 2.69761C1.40547 3.57563 0.664219 4.72696 0.285094 6.01441C-0.094031 7.30187 -0.0950491 8.67117 0.282162 9.95919C0.659372 11.2472 1.39891 12.3996 2.41266 13.2792C3.42641 14.1587 4.67164 14.7283 6 14.92V17H5C4.73478 17 4.48042 17.1054 4.29289 17.2929C4.10535 17.4804 3.99999 17.7348 3.99999 18C3.99999 18.2652 4.10535 18.5196 4.29289 18.7071C4.48042 18.8946 4.73478 19 5 19H6V20C6 20.2652 6.10535 20.5196 6.29289 20.7071C6.48042 20.8946 6.73478 21 7 21C7.26521 21 7.51957 20.8946 7.7071 20.7071C7.89464 20.5196 8 20.2652 8 20V19H9C9.26521 19 9.51957 18.8946 9.7071 18.7071C9.89464 18.5196 10 18.2652 10 18C10 17.7348 9.89464 17.4804 9.7071 17.2929C9.51957 17.1054 9.26521 17 9 17H8V14.92C9.66459 14.6797 11.187 13.8482 12.2888 12.5775C13.3906 11.3068 13.998 9.68184 14 8ZM7 13C6.01109 13 5.04439 12.7068 4.22214 12.1573C3.3999 11.6079 2.75904 10.827 2.3806 9.91341C2.00216 8.99978 1.90314 7.99445 2.09607 7.02455C2.28899 6.05464 2.7652 5.16373 3.46446 4.46446C4.16372 3.7652 5.05464 3.289 6.02454 3.09607C6.99445 2.90314 7.99978 3.00216 8.91341 3.3806C9.82704 3.75904 10.6079 4.3999 11.1573 5.22215C11.7068 6.04439 12 7.01109 12 8C12 8.65661 11.8707 9.30679 11.6194 9.91341C11.3681 10.52 10.9998 11.0712 10.5355 11.5355C10.0712 11.9998 9.52004 12.3681 8.91341 12.6194C8.30678 12.8707 7.6566 13 7 13Z" fill="#F5365C"/>
</svg>
