<svg width="25" height="24" viewBox="0 0 25 24" fill="none" xmlns="http://www.w3.org/2000/svg">
<g id="Home">
<path id="Rectangle 1" d="M5.10001 12.7596C5.10001 11.4019 5.10001 10.723 5.37447 10.1262C5.64893 9.52949 6.16437 9.08769 7.19526 8.20407L8.19526 7.34693C10.0586 5.7498 10.9902 4.95123 12.1 4.95123C13.2098 4.95123 14.1414 5.7498 16.0048 7.34693L17.0048 8.20407C18.0356 9.08769 18.5511 9.52949 18.8255 10.1262C19.1 10.723 19.1 11.4019 19.1 12.7596V17C19.1 18.8856 19.1 19.8284 18.5142 20.4142C17.9284 21 16.9856 21 15.1 21H9.10001C7.21439 21 6.27158 21 5.68579 20.4142C5.10001 19.8284 5.10001 18.8856 5.10001 17V12.7596Z" stroke="#ADB5BD" stroke-width="2"/>
<path id="Vector 3" d="M14.6 21V16C14.6 15.4477 14.1523 15 13.6 15H10.6C10.0477 15 9.60001 15.4477 9.60001 16V21" stroke="#ADB5BD" stroke-width="2" stroke-linecap="round" stroke-linejoin="round"/>
</g>
</svg>
