<svg width="12" height="14" viewBox="0 0 12 14" fill="none" xmlns="http://www.w3.org/2000/svg">
<path d="M11 6H3.40999L6.70999 2.71C6.89829 2.5217 7.00408 2.2663 7.00408 2C7.00408 1.7337 6.89829 1.47831 6.70999 1.29C6.52168 1.1017 6.26629 0.995911 5.99999 0.995911C5.73369 0.995911 5.47829 1.1017 5.28999 1.29L0.289988 6.29C0.198947 6.38511 0.127582 6.49725 0.0799879 6.62C-0.0200301 6.86346 -0.0200301 7.13654 0.0799879 7.38C0.127582 7.50275 0.198947 7.6149 0.289988 7.71L5.28999 12.71C5.38295 12.8037 5.49355 12.8781 5.61541 12.9289C5.73727 12.9797 5.86798 13.0058 5.99999 13.0058C6.132 13.0058 6.26271 12.9797 6.38456 12.9289C6.50642 12.8781 6.61703 12.8037 6.70999 12.71C6.80372 12.617 6.87811 12.5064 6.92888 12.3846C6.97965 12.2627 7.00579 12.132 7.00579 12C7.00579 11.868 6.97965 11.7373 6.92888 11.6154C6.87811 11.4936 6.80372 11.383 6.70999 11.29L3.40999 8H11C11.2652 8 11.5196 7.89465 11.7071 7.70711C11.8946 7.51957 12 7.26522 12 7C12 6.73479 11.8946 6.48043 11.7071 6.2929C11.5196 6.10536 11.2652 6 11 6Z" fill="white"/>
</svg>
