<svg width="16" height="21" viewBox="0 0 16 21" fill="none" xmlns="http://www.w3.org/2000/svg">
<path d="M8 11.0288C7.73478 11.0288 7.48043 11.1341 7.29289 11.3217C7.10536 11.5092 7 11.7636 7 12.0288V15.0288C7 15.294 7.10536 15.5484 7.29289 15.7359C7.48043 15.9234 7.73478 16.0288 8 16.0288C8.26522 16.0288 8.51957 15.9234 8.70711 15.7359C8.89464 15.5484 9 15.294 9 15.0288V12.0288C9 11.7636 8.89464 11.5092 8.70711 11.3217C8.51957 11.1341 8.26522 11.0288 8 11.0288ZM13 7.02879H5V5.02879C4.99854 4.43498 5.17334 3.85409 5.50226 3.35969C5.83118 2.8653 6.29942 2.47964 6.84768 2.25155C7.39594 2.02346 7.99956 1.96322 8.58209 2.07844C9.16462 2.19366 9.69985 2.47916 10.12 2.89879C10.4959 3.28286 10.7649 3.75862 10.9 4.27879C10.9328 4.40617 10.9904 4.52584 11.0695 4.63096C11.1486 4.73608 11.2476 4.8246 11.3609 4.89146C11.4742 4.95832 11.5995 5.00221 11.7298 5.02062C11.86 5.03904 11.9926 5.03162 12.12 4.99879C12.2474 4.96596 12.3671 4.90836 12.4722 4.82928C12.5773 4.7502 12.6658 4.65119 12.7327 4.53791C12.7995 4.42462 12.8434 4.29927 12.8618 4.16902C12.8802 4.03877 12.8728 3.90617 12.84 3.77879C12.6122 2.91359 12.1603 2.12372 11.53 1.48879C10.8302 0.791155 9.93934 0.316526 8.96996 0.124833C8.00058 -0.0668604 6.99614 0.0329796 6.08346 0.411746C5.17078 0.790511 4.3908 1.43122 3.84201 2.25296C3.29321 3.07471 3.00021 4.04064 3 5.02879V7.02879C2.20435 7.02879 1.44129 7.34486 0.87868 7.90747C0.316071 8.47008 0 9.23314 0 10.0288V17.0288C0 17.8244 0.316071 18.5875 0.87868 19.1501C1.44129 19.7127 2.20435 20.0288 3 20.0288H13C13.7956 20.0288 14.5587 19.7127 15.1213 19.1501C15.6839 18.5875 16 17.8244 16 17.0288V10.0288C16 9.23314 15.6839 8.47008 15.1213 7.90747C14.5587 7.34486 13.7956 7.02879 13 7.02879ZM14 17.0288C14 17.294 13.8946 17.5484 13.7071 17.7359C13.5196 17.9234 13.2652 18.0288 13 18.0288H3C2.73478 18.0288 2.48043 17.9234 2.29289 17.7359C2.10536 17.5484 2 17.294 2 17.0288V10.0288C2 9.76357 2.10536 9.50922 2.29289 9.32168C2.48043 9.13415 2.73478 9.02879 3 9.02879H13C13.2652 9.02879 13.5196 9.13415 13.7071 9.32168C13.8946 9.50922 14 9.76357 14 10.0288V17.0288Z" fill="#8898AA"/>
</svg>
