<svg width="18" height="18" viewBox="0 0 18 18" fill="none" xmlns="http://www.w3.org/2000/svg">
<path d="M17.42 1.12C17.3185 0.875651 17.1244 0.681475 16.88 0.58C16.7598 0.528759 16.6307 0.50158 16.5 0.5H12.5C12.2348 0.5 11.9804 0.605357 11.7929 0.792893C11.6054 0.98043 11.5 1.23478 11.5 1.5C11.5 1.76522 11.6054 2.01957 11.7929 2.20711C11.9804 2.39464 12.2348 2.5 12.5 2.5H14.09L11.69 4.9C10.2729 3.83945 8.50669 3.3551 6.74685 3.54446C4.98701 3.73382 3.36424 4.58282 2.20521 5.92057C1.04619 7.25831 0.436972 8.98547 0.500199 10.7543C0.563427 12.5232 1.29441 14.2025 2.54598 15.454C3.79756 16.7056 5.47681 17.4366 7.24568 17.4998C9.01455 17.563 10.7417 16.9538 12.0794 15.7948C13.4172 14.6358 14.2662 13.013 14.4556 11.2532C14.6449 9.49332 14.1606 7.72708 13.1 6.31L15.5 3.91V5.5C15.5 5.76522 15.6054 6.01957 15.7929 6.20711C15.9804 6.39464 16.2348 6.5 16.5 6.5C16.7652 6.5 17.0196 6.39464 17.2071 6.20711C17.3947 6.01957 17.5 5.76522 17.5 5.5V1.5C17.4984 1.36932 17.4713 1.24022 17.42 1.12ZM11 14C10.3048 14.7093 9.41411 15.1954 8.44151 15.3965C7.4689 15.5975 6.45846 15.5044 5.53901 15.1289C4.61955 14.7534 3.83275 14.1126 3.27891 13.2882C2.72507 12.4638 2.4293 11.4932 2.4293 10.5C2.4293 9.50683 2.72507 8.53617 3.27891 7.71176C3.83275 6.88736 4.61955 6.24657 5.53901 5.87109C6.45846 5.49562 7.4689 5.40247 8.44151 5.60353C9.41411 5.80459 10.3048 6.29074 11 7C11.9161 7.93464 12.4293 9.19124 12.4293 10.5C12.4293 11.8088 11.9161 13.0654 11 14Z" fill="#4285F4"/>
</svg>
