<svg width="23" height="22" viewBox="0 0 23 22" fill="none" xmlns="http://www.w3.org/2000/svg">
<path d="M9.08567 12.087H1.28567C0.990146 12.087 0.706723 12.2015 0.497753 12.4053C0.288784 12.6092 0.171387 12.8856 0.171387 13.1739V20.7826C0.171387 21.0709 0.288784 21.3474 0.497753 21.5512C0.706723 21.755 0.990146 21.8696 1.28567 21.8696H9.08567C9.3812 21.8696 9.66462 21.755 9.87359 21.5512C10.0826 21.3474 10.2 21.0709 10.2 20.7826V13.1739C10.2 12.8856 10.0826 12.6092 9.87359 12.4053C9.66462 12.2015 9.3812 12.087 9.08567 12.087ZM7.97139 19.6957H2.39996V14.2609H7.97139V19.6957ZM21.3428 0.130432H13.5428C13.2473 0.130432 12.9639 0.24495 12.7549 0.448794C12.5459 0.652638 12.4285 0.92911 12.4285 1.21739V8.82609C12.4285 9.11436 12.5459 9.39084 12.7549 9.59468C12.9639 9.79852 13.2473 9.91304 13.5428 9.91304H21.3428C21.6383 9.91304 21.9218 9.79852 22.1307 9.59468C22.3397 9.39084 22.4571 9.11436 22.4571 8.82609V1.21739C22.4571 0.92911 22.3397 0.652638 22.1307 0.448794C21.9218 0.24495 21.6383 0.130432 21.3428 0.130432ZM20.2285 7.73913H14.6571V2.30435H20.2285V7.73913ZM21.3428 12.087H13.5428C13.2473 12.087 12.9639 12.2015 12.7549 12.4053C12.5459 12.6092 12.4285 12.8856 12.4285 13.1739V20.7826C12.4285 21.0709 12.5459 21.3474 12.7549 21.5512C12.9639 21.755 13.2473 21.8696 13.5428 21.8696H21.3428C21.6383 21.8696 21.9218 21.755 22.1307 21.5512C22.3397 21.3474 22.4571 21.0709 22.4571 20.7826V13.1739C22.4571 12.8856 22.3397 12.6092 22.1307 12.4053C21.9218 12.2015 21.6383 12.087 21.3428 12.087ZM20.2285 19.6957H14.6571V14.2609H20.2285V19.6957ZM9.08567 0.130432H1.28567C0.990146 0.130432 0.706723 0.24495 0.497753 0.448794C0.288784 0.652638 0.171387 0.92911 0.171387 1.21739V8.82609C0.171387 9.11436 0.288784 9.39084 0.497753 9.59468C0.706723 9.79852 0.990146 9.91304 1.28567 9.91304H9.08567C9.3812 9.91304 9.66462 9.79852 9.87359 9.59468C10.0826 9.39084 10.2 9.11436 10.2 8.82609V1.21739C10.2 0.92911 10.0826 0.652638 9.87359 0.448794C9.66462 0.24495 9.3812 0.130432 9.08567 0.130432ZM7.97139 7.73913H2.39996V2.30435H7.97139V7.73913Z" fill="#5E72E4"/>
</svg>
