<svg width="20" height="21" viewBox="0 0 20 21" fill="none" xmlns="http://www.w3.org/2000/svg">
<path d="M13.71 10.7388C14.6904 9.96744 15.406 8.9097 15.7572 7.71272C16.1085 6.51574 16.0779 5.23905 15.6698 4.06025C15.2617 2.88145 14.4963 1.85917 13.4801 1.13564C12.4639 0.4121 11.2474 0.0232849 10 0.0232849C8.75255 0.0232849 7.53611 0.4121 6.51993 1.13564C5.50374 1.85917 4.73834 2.88145 4.33021 4.06025C3.92208 5.23905 3.89151 6.51574 4.24276 7.71272C4.59401 8.9097 5.3096 9.96744 6.29 10.7388C4.61007 11.4118 3.14428 12.5281 2.04889 13.9687C0.953495 15.4093 0.26956 17.1201 0.0699967 18.9188C0.0555513 19.0501 0.0671132 19.183 0.104022 19.3098C0.140931 19.4367 0.202464 19.555 0.285108 19.6581C0.452016 19.8663 0.69478 19.9996 0.959997 20.0288C1.22521 20.058 1.49116 19.9806 1.69932 19.8137C1.90749 19.6468 2.04082 19.404 2.07 19.1388C2.28958 17.184 3.22168 15.3786 4.68822 14.0676C6.15475 12.7566 8.0529 12.0318 10.02 12.0318C11.9871 12.0318 13.8852 12.7566 15.3518 14.0676C16.8183 15.3786 17.7504 17.184 17.97 19.1388C17.9972 19.3845 18.1144 19.6114 18.2991 19.7758C18.4838 19.9402 18.7228 20.0303 18.97 20.0288H19.08C19.3421 19.9986 19.5817 19.8661 19.7466 19.66C19.9114 19.454 19.9881 19.1911 19.96 18.9288C19.7595 17.125 19.0719 15.4098 17.9708 13.967C16.8698 12.5242 15.3969 11.4083 13.71 10.7388ZM10 10.0288C9.20887 10.0288 8.43551 9.79418 7.77772 9.35466C7.11992 8.91513 6.60723 8.29042 6.30448 7.55951C6.00173 6.82861 5.92251 6.02434 6.07686 5.24842C6.2312 4.4725 6.61216 3.75976 7.17157 3.20035C7.73098 2.64094 8.44371 2.25998 9.21964 2.10564C9.99556 1.9513 10.7998 2.03051 11.5307 2.33326C12.2616 2.63601 12.8863 3.1487 13.3259 3.8065C13.7654 4.4643 14 5.23766 14 6.02878C14 7.08965 13.5786 8.10706 12.8284 8.85721C12.0783 9.60735 11.0609 10.0288 10 10.0288Z" fill="#8898AA"/>
</svg>
